<svg xmlns="http://www.w3.org/2000/svg" width="272px" height="100px" viewBox="0 0 347.81 127.94"><defs><style>.cls-1{fill:#ff931e;}</style></defs><title>Asset 40</title><g id="Layer_2" data-name="Layer 2"><g id="Layer_1-2" data-name="Layer 1"><path class="cls-1" d="M279.6,121.41c-.05,2.36-.69,4.11-1.91,5.23a5.34,5.34,0,0,1-3.74,1.3,5.25,5.25,0,0,1-4.05-1.61,6.38,6.38,0,0,1-1.57-3.53A70.87,70.87,0,0,1,268,114a70.79,70.79,0,0,1,.34-8.76,6.38,6.38,0,0,1,1.57-3.53,5.92,5.92,0,0,1,7.94-.16,7.15,7.15,0,0,1,1.76,5.08h-2.25a5.07,5.07,0,0,0-1.07-3.59,3,3,0,0,0-2.33-.91,3.06,3.06,0,0,0-2.41,1,5.28,5.28,0,0,0-1.07,2.92c-.15,1.31-.23,4-.23,8s.08,6.66.23,8a5.28,5.28,0,0,0,1.07,2.92,3.06,3.06,0,0,0,2.41,1,3,3,0,0,0,2.33-.91,5.07,5.07,0,0,0,1.07-3.59Z"/><path class="cls-1" d="M293.27,127.63H283.8V100.44h9.47v2h-7.22V113h6.23v2h-6.23v10.58h7.22Z"/><path class="cls-1" d="M307.38,102c1,1.07,1.55,3.07,1.55,6s-.51,4.92-1.55,6a5.75,5.75,0,0,1-4.33,1.59H300v12H297.7V100.44h5.35A5.72,5.72,0,0,1,307.38,102Zm-1.66,10.37c.64-.78,1-2.23,1-4.37s-.32-3.61-1-4.39a3.35,3.35,0,0,0-2.78-1.19h-3v11.12h3A3.37,3.37,0,0,0,305.72,112.41Z"/><path class="cls-1" d="M324.59,120.14a13.82,13.82,0,0,1-.38,3.71,5.55,5.55,0,0,1-1.3,2.22,6.31,6.31,0,0,1-4.7,1.56h-4.85V100.44h4.89a6,6,0,0,1,4.58,1.56,4.85,4.85,0,0,1,1.21,2.1,13.59,13.59,0,0,1,.32,3.33,6.91,6.91,0,0,1-1.64,5A3.81,3.81,0,0,1,321,113.5a4.14,4.14,0,0,1,1.91,1.07Q324.59,116.25,324.59,120.14Zm-2.48-12.64c0-1.88-.31-3.19-.94-3.93a3.55,3.55,0,0,0-2.88-1.11h-2.68v10.08h2.68C320.83,112.54,322.11,110.86,322.11,107.5Zm.23,12.57q0-5.53-4-5.54h-2.68v11.08h2.68a3.71,3.71,0,0,0,3-1.21C322,123.6,322.34,122.16,322.34,120.07Z"/><path class="cls-1" d="M331.5,127.63h-2.25V100.44h2.25Z"/><path class="cls-1" d="M347.81,121.41c-.05,2.36-.69,4.11-1.91,5.23a5.34,5.34,0,0,1-3.74,1.3,5.25,5.25,0,0,1-4.05-1.61,6.38,6.38,0,0,1-1.57-3.53,73,73,0,0,1-.34-8.77,72.92,72.92,0,0,1,.34-8.76,6.38,6.38,0,0,1,1.57-3.53,5.92,5.92,0,0,1,7.94-.16,7.15,7.15,0,0,1,1.76,5.08h-2.25a5.07,5.07,0,0,0-1.07-3.59,3,3,0,0,0-2.33-.91,3.06,3.06,0,0,0-2.41,1,5.36,5.36,0,0,0-1.07,2.92c-.15,1.31-.23,4-.23,8s.08,6.66.23,8a5.36,5.36,0,0,0,1.07,2.92,3.06,3.06,0,0,0,2.41,1,3,3,0,0,0,2.33-.91,5.07,5.07,0,0,0,1.07-3.59Z"/><rect class="cls-1" x="137.71" y="32.83" width="19.7" height="52.53"/><polygon class="cls-1" points="185.16 32.83 168.75 32.83 168.75 45.97 185.16 45.97 185.16 85.36 204.86 85.36 204.86 45.97 221.28 45.97 221.28 32.83 204.86 32.83 185.16 32.83"/><polygon class="cls-1" points="329 32.83 328.11 32.83 295.28 79.72 295.28 85.36 307.36 85.36 328.11 55.73 328.11 57 328.11 85.36 347.81 85.36 347.81 32.83 329 32.83"/><polygon class="cls-1" points="233.21 32.83 233.21 45.97 233.21 52.53 233.21 65.66 233.21 72.23 233.21 85.36 252.91 85.36 285.74 85.36 285.74 72.23 252.91 72.23 252.91 65.66 285.74 65.66 285.74 52.53 252.91 52.53 252.91 45.97 285.74 45.97 285.74 32.83 252.91 32.83 233.21 32.83"/><polygon class="cls-1" points="101.5 53.29 86.28 38.06 50.75 73.59 31.72 54.56 67.24 19.03 50.75 2.54 15.22 38.06 15.22 38.06 0 53.29 50.75 104.04 50.75 104.04 50.75 104.04 101.5 53.29"/><rect class="cls-1" x="72.82" y="5.57" width="26.91" height="26.91" transform="translate(11.81 66.58) rotate(-45)"/></g></g></svg>
